<svg width="19" height="19" viewBox="0 0 19 19" fill="none" xmlns="http://www.w3.org/2000/svg">
<path fill-rule="evenodd" clip-rule="evenodd" d="M6.41687 2.021C6.55097 1.75279 6.8251 1.58337 7.12496 1.58337H11.875C12.1748 1.58337 12.4489 1.75279 12.583 2.021L13.5517 3.95837H16.2291C17.3222 3.95837 18.2083 4.84448 18.2083 5.93754V15.4375C18.2083 16.5306 17.3222 17.4167 16.2291 17.4167H2.77079C1.67773 17.4167 0.791626 16.5306 0.791626 15.4375V5.93754C0.791626 4.84448 1.67773 3.95837 2.77079 3.95837H5.44818L6.41687 2.021ZM7.2184 3.95837H11.7815L11.3857 3.16671H7.61424L7.2184 3.95837ZM2.77079 5.54171C2.55218 5.54171 2.37496 5.71893 2.37496 5.93754V15.4375C2.37496 15.6562 2.55218 15.8334 2.77079 15.8334H16.2291C16.4477 15.8334 16.625 15.6562 16.625 15.4375V5.93754C16.625 5.71893 16.4477 5.54171 16.2291 5.54171H2.77079ZM5.54163 10.6875C5.54163 8.5014 7.31382 6.72921 9.49996 6.72921C11.6861 6.72921 13.4583 8.5014 13.4583 10.6875C13.4583 12.8737 11.6861 14.6459 9.49996 14.6459C7.31382 14.6459 5.54163 12.8737 5.54163 10.6875ZM9.49996 8.31254C8.18828 8.31254 7.12496 9.37586 7.12496 10.6875C7.12496 11.9992 8.18828 13.0625 9.49996 13.0625C10.8116 13.0625 11.875 11.9992 11.875 10.6875C11.875 9.37586 10.8116 8.31254 9.49996 8.31254Z" fill="#E94057"/>
</svg>
