<svg width="17" height="18" viewBox="0 0 17 18" fill="none" xmlns="http://www.w3.org/2000/svg">
<path fill-rule="evenodd" clip-rule="evenodd" d="M15.7193 0.961609C15.9098 1.11173 16.0209 1.34083 16.0209 1.5833V4.7833C16.0211 4.79454 16.0211 4.80575 16.0209 4.81692V13.6166C16.0209 14.8409 15.0284 15.8333 13.8042 15.8333H12.2605C11.0581 15.8333 10.0834 14.8586 10.0834 13.6562C10.0834 12.4538 11.0581 11.4791 12.2605 11.4791H14.4375V5.80043L6.12504 7.7685V15.2C6.12504 16.4242 5.13259 17.4166 3.90837 17.4166H2.76046C1.55809 17.4166 0.583374 16.4419 0.583374 15.2396C0.583374 14.0372 1.55809 13.0625 2.76046 13.0625H4.54171V7.15851C4.54147 7.14728 4.54147 7.13608 4.54171 7.12492V3.9583C4.54171 3.59224 4.79267 3.27392 5.14862 3.18849L15.0445 0.813493C15.2802 0.756907 15.5289 0.811489 15.7193 0.961609ZM6.12504 6.1414L14.4375 4.17333V2.58745L6.12504 4.58245V6.1414ZM4.54171 14.6458H2.76046C2.43254 14.6458 2.16671 14.9116 2.16671 15.2396C2.16671 15.5675 2.43254 15.8333 2.76046 15.8333H3.90837C4.25814 15.8333 4.54171 15.5497 4.54171 15.2V14.6458ZM14.4375 13.0625H12.2605C11.9325 13.0625 11.6667 13.3283 11.6667 13.6562C11.6667 13.9841 11.9325 14.25 12.2605 14.25H13.8042C14.154 14.25 14.4375 13.9664 14.4375 13.6166V13.0625Z" fill="#E94057"/>
</svg>
