<svg width="375" height="436" viewBox="0 0 375 436" fill="none" xmlns="http://www.w3.org/2000/svg">
<circle opacity="0.2" cx="199.53" cy="217.53" r="164.952" transform="rotate(67.5756 199.53 217.53)" stroke="url(#paint0_linear_33_1889)" stroke-width="3.25828"/>
<circle cx="199.175" cy="217.052" r="146.613" transform="rotate(67.5756 199.175 217.052)" stroke="url(#paint1_linear_33_1889)" stroke-width="4.11692"/>
<circle opacity="0.8" cx="199.217" cy="216.717" r="122.358" transform="rotate(67.5756 199.217 216.717)" stroke="url(#paint2_linear_33_1889)" stroke-width="6.19896"/>
<circle cx="199.267" cy="217.051" r="93.4636" transform="rotate(75 199.267 217.051)" fill="url(#paint3_linear_33_1889)" stroke="url(#paint4_linear_33_1889)" stroke-width="9"/>
<circle cx="214.562" cy="362.974" r="4.63701" transform="rotate(139.329 214.562 362.974)" fill="#EF35FF"/>
<circle cx="188.471" cy="364.752" r="3.50656" transform="rotate(139.329 188.471 364.752)" fill="#EA6126"/>
<circle cx="164.539" cy="359.606" r="2.66586" transform="rotate(139.329 164.539 359.606)" fill="#2AD36E"/>
<circle cx="24.7307" cy="24.7307" r="24.7307" transform="matrix(-1 0 0 1 110.107 103.226)" fill="#612DA6"/>
<circle cx="31.6862" cy="31.6862" r="31.6862" transform="matrix(-1 0 0 1 215.985 28.2605)" fill="#612DA6"/>
<circle cx="19.3209" cy="19.3209" r="19.3209" transform="matrix(-1 0 0 1 335.001 261.657)" fill="#612DA6"/>
<circle cx="24.7307" cy="24.7307" r="24.7307" transform="matrix(-1 0 0 1 283.222 319.619)" fill="#612DA6"/>
<circle cx="151.067" cy="56.8554" r="7.84549" fill="url(#paint5_radial_33_1889)" stroke="#09011E" stroke-width="1.77996"/>
<g filter="url(#filter0_di_33_1889)">
<path d="M299.448 331.555C295.258 324.858 292.769 321.156 294.09 317.406C295.137 314.435 298.018 313.716 298.084 313.691C302.751 312.349 305.329 316.066 305.836 317.197C306.93 316.548 311.261 314.92 314.259 318.396C314.696 318.9 316.07 320.75 315.437 323.29C314.329 327.688 308.414 329.789 302.271 332.396C301.752 332.619 301.188 332.63 300.678 332.48C300.179 332.333 299.737 332.015 299.448 331.555Z" fill="url(#paint6_linear_33_1889)"/>
</g>
<g filter="url(#filter1_di_33_1889)">
<circle cx="261.913" cy="74.9614" r="18.1682" transform="rotate(-4.89327 261.913 74.9614)" fill="url(#paint7_linear_33_1889)"/>
</g>
<path d="M258.272 80.7462C258.737 80.7527 261.435 81.375 261.856 81.5727C262.214 81.7492 262.576 82.052 262.471 82.5071C262.349 82.9353 262.011 83.2619 261.611 83.4265C261.082 83.6785 260.507 83.7825 259.94 83.7372C259.628 83.7074 259.33 83.6397 259.047 83.5314C258.518 83.3239 258.045 82.9783 257.682 82.5196C257.393 82.197 257.232 81.7555 257.31 81.3172C257.415 80.8621 257.873 80.7481 258.272 80.7462ZM263.706 65.6028C265.549 66.0277 267.226 67.3538 268.003 69.0915C268.509 70.2118 268.622 71.2406 268.281 72.7205L268.192 73.1055C267.93 74.2405 268.07 74.9772 268.54 75.8974C268.899 76.5784 268.888 77.3436 268.706 78.1345C268.523 78.9245 268.096 79.6158 267.446 80.1072C266.61 80.6832 265.561 80.9322 264.582 80.7917C263.162 80.5918 261.745 80.3725 260.334 80.0471C258.922 79.7214 257.543 79.3394 256.189 78.8564C255.246 78.5537 254.412 77.8707 253.914 76.9871C253.544 76.2606 253.462 75.4517 253.644 74.6617C253.826 73.8708 254.152 73.1781 254.773 72.723C255.618 72.106 256.047 71.5004 256.308 70.3654L256.397 69.9804C256.748 68.4605 257.348 67.5522 258.338 66.7557C259.803 65.5991 261.823 65.1685 263.627 65.5845L263.706 65.6028Z" fill="url(#paint8_linear_33_1889)"/>
<g filter="url(#filter2_di_33_1889)">
<path d="M129.222 87.5683C121.422 89.645 117.219 97.6124 119.167 104.929C121.427 113.415 129.75 116.84 136.562 115.026C138.814 114.427 141.152 113.156 142.842 111.439C143.429 110.827 143.935 110.353 144.756 110.4L147.75 110.486C148.509 110.52 148.994 109.801 148.591 109.114L146.85 106.278C146.586 105.892 146.492 105.431 146.617 105.014C147.219 102.527 147.259 99.9686 146.644 97.658C144.718 90.4238 137.2 85.444 129.222 87.5683ZM126.143 101.246C127.118 100.986 128.109 101.562 128.369 102.538C128.625 103.501 128.055 104.507 127.08 104.767C126.105 105.026 125.11 104.437 124.854 103.474C124.594 102.498 125.168 101.505 126.143 101.246ZM132.473 99.5602C133.431 99.2905 134.44 99.8762 134.696 100.839C134.956 101.815 134.382 102.808 133.411 103.081C132.436 103.341 131.441 102.751 131.184 101.789C130.924 100.812 131.498 99.8198 132.473 99.5602ZM138.804 97.8747C139.779 97.6151 140.771 98.1907 141.031 99.1672C141.287 100.13 140.703 101.14 139.742 101.396C138.763 101.641 137.771 101.066 137.515 100.103C137.255 99.1267 137.829 98.1343 138.804 97.8747Z" fill="url(#paint9_linear_33_1889)"/>
</g>
<defs>
<filter id="filter0_di_33_1889" x="287.565" y="305.568" width="45.8662" height="43.1772" filterUnits="userSpaceOnUse" color-interpolation-filters="sRGB">
<feFlood flood-opacity="0" result="BackgroundImageFix"/>
<feColorMatrix in="SourceAlpha" type="matrix" values="0 0 0 0 0 0 0 0 0 0 0 0 0 0 0 0 0 0 127 0" result="hardAlpha"/>
<feOffset dx="5.83083" dy="4.16488"/>
<feGaussianBlur stdDeviation="6"/>
<feColorMatrix type="matrix" values="0 0 0 0 0.192157 0 0 0 0 0.0784314 0 0 0 0 0.105726 0 0 0 1 0"/>
<feBlend mode="normal" in2="BackgroundImageFix" result="effect1_dropShadow_33_1889"/>
<feBlend mode="normal" in="SourceGraphic" in2="effect1_dropShadow_33_1889" result="shape"/>
<feColorMatrix in="SourceAlpha" type="matrix" values="0 0 0 0 0 0 0 0 0 0 0 0 0 0 0 0 0 0 127 0" result="hardAlpha"/>
<feOffset dx="-6.02791" dy="-6.02791"/>
<feGaussianBlur stdDeviation="5.42512"/>
<feComposite in2="hardAlpha" operator="arithmetic" k2="-1" k3="1"/>
<feColorMatrix type="matrix" values="0 0 0 0 0.708333 0 0 0 0 0.0619792 0 0 0 0 0.108921 0 0 0 1 0"/>
<feBlend mode="normal" in2="shape" result="effect2_innerShadow_33_1889"/>
</filter>
<filter id="filter1_di_33_1889" x="238.547" y="50.1919" width="56.5563" height="56.5561" filterUnits="userSpaceOnUse" color-interpolation-filters="sRGB">
<feFlood flood-opacity="0" result="BackgroundImageFix"/>
<feColorMatrix in="SourceAlpha" type="matrix" values="0 0 0 0 0 0 0 0 0 0 0 0 0 0 0 0 0 0 127 0" result="hardAlpha"/>
<feOffset dx="4.91192" dy="3.50851"/>
<feGaussianBlur stdDeviation="5.05443"/>
<feColorMatrix type="matrix" values="0 0 0 0 0.136667 0 0 0 0 0.410652 0 0 0 0 0.8 0 0 0 0.27 0"/>
<feBlend mode="normal" in2="BackgroundImageFix" result="effect1_dropShadow_33_1889"/>
<feBlend mode="normal" in="SourceGraphic" in2="effect1_dropShadow_33_1889" result="shape"/>
<feColorMatrix in="SourceAlpha" type="matrix" values="0 0 0 0 0 0 0 0 0 0 0 0 0 0 0 0 0 0 127 0" result="hardAlpha"/>
<feOffset dx="-5.07794" dy="-5.07794"/>
<feGaussianBlur stdDeviation="4.57015"/>
<feComposite in2="hardAlpha" operator="arithmetic" k2="-1" k3="1"/>
<feColorMatrix type="matrix" values="0 0 0 0 0.0773437 0 0 0 0 0.213187 0 0 0 0 0.5625 0 0 0 1 0"/>
<feBlend mode="normal" in2="shape" result="effect2_innerShadow_33_1889"/>
</filter>
<filter id="filter2_di_33_1889" x="112.525" y="79.2391" width="54.0425" height="52.4238" filterUnits="userSpaceOnUse" color-interpolation-filters="sRGB">
<feFlood flood-opacity="0" result="BackgroundImageFix"/>
<feColorMatrix in="SourceAlpha" type="matrix" values="0 0 0 0 0 0 0 0 0 0 0 0 0 0 0 0 0 0 127 0" result="hardAlpha"/>
<feOffset dx="5.83083" dy="4.16488"/>
<feGaussianBlur stdDeviation="6"/>
<feColorMatrix type="matrix" values="0 0 0 0 0.192157 0 0 0 0 0.0784314 0 0 0 0 0.105726 0 0 0 1 0"/>
<feBlend mode="normal" in2="BackgroundImageFix" result="effect1_dropShadow_33_1889"/>
<feBlend mode="normal" in="SourceGraphic" in2="effect1_dropShadow_33_1889" result="shape"/>
<feColorMatrix in="SourceAlpha" type="matrix" values="0 0 0 0 0 0 0 0 0 0 0 0 0 0 0 0 0 0 127 0" result="hardAlpha"/>
<feOffset dx="-6.02791" dy="-6.02791"/>
<feGaussianBlur stdDeviation="5.42512"/>
<feComposite in2="hardAlpha" operator="arithmetic" k2="-1" k3="1"/>
<feColorMatrix type="matrix" values="0 0 0 0 0.679167 0 0 0 0 0.238614 0 0 0 0 0.0452778 0 0 0 1 0"/>
<feBlend mode="normal" in2="shape" result="effect2_innerShadow_33_1889"/>
</filter>
<linearGradient id="paint0_linear_33_1889" x1="199.53" y1="50.9486" x2="199.53" y2="384.111" gradientUnits="userSpaceOnUse">
<stop stop-color="#BD355A"/>
<stop offset="0.305825" stop-color="#070218" stop-opacity="0"/>
<stop offset="0.791262" stop-color="#09011E" stop-opacity="0"/>
<stop offset="1" stop-color="#3228CC"/>
</linearGradient>
<linearGradient id="paint1_linear_33_1889" x1="199.175" y1="68.3801" x2="199.175" y2="365.723" gradientUnits="userSpaceOnUse">
<stop stop-color="#BD355A"/>
<stop offset="0.305825" stop-color="#070218" stop-opacity="0"/>
<stop offset="0.791262" stop-color="#09011E" stop-opacity="0"/>
<stop offset="1" stop-color="#3228CC"/>
</linearGradient>
<linearGradient id="paint2_linear_33_1889" x1="199.217" y1="91.2591" x2="199.217" y2="342.174" gradientUnits="userSpaceOnUse">
<stop stop-color="#BD355A"/>
<stop offset="0.305825" stop-color="#070218" stop-opacity="0"/>
<stop offset="0.791262" stop-color="#09011E" stop-opacity="0"/>
<stop offset="1" stop-color="#3228CC"/>
</linearGradient>
<linearGradient id="paint3_linear_33_1889" x1="199.267" y1="119.087" x2="199.267" y2="315.014" gradientUnits="userSpaceOnUse">
<stop stop-color="#270D59"/>
<stop offset="1" stop-color="#07011A" stop-opacity="0"/>
</linearGradient>
<linearGradient id="paint4_linear_33_1889" x1="199.267" y1="119.087" x2="199.267" y2="315.014" gradientUnits="userSpaceOnUse">
<stop stop-color="#BD355A"/>
<stop offset="1" stop-color="#3228CC"/>
</linearGradient>
<radialGradient id="paint5_radial_33_1889" cx="0" cy="0" r="1" gradientUnits="userSpaceOnUse" gradientTransform="translate(148.98 54.0732) rotate(77.9052) scale(9.95878)">
<stop stop-color="#BFFF6F"/>
<stop offset="1" stop-color="#12D13C"/>
</radialGradient>
<linearGradient id="paint6_linear_33_1889" x1="303.375" y1="317.648" x2="305.075" y2="329.503" gradientUnits="userSpaceOnUse">
<stop stop-color="#F64A69"/>
<stop offset="1" stop-color="#EF3349"/>
</linearGradient>
<linearGradient id="paint7_linear_33_1889" x1="258.323" y1="63.4707" x2="269.639" y2="83.6454" gradientUnits="userSpaceOnUse">
<stop stop-color="#297FE2"/>
<stop offset="1" stop-color="#2149D7"/>
</linearGradient>
<linearGradient id="paint8_linear_33_1889" x1="263.666" y1="65.5936" x2="259.499" y2="83.6674" gradientUnits="userSpaceOnUse">
<stop stop-color="white"/>
<stop offset="1" stop-color="#BADAFF"/>
</linearGradient>
<linearGradient id="paint9_linear_33_1889" x1="133.306" y1="91.8858" x2="128.813" y2="109.412" gradientUnits="userSpaceOnUse">
<stop stop-color="#F1883B"/>
<stop offset="1" stop-color="#EB350D"/>
</linearGradient>
</defs>
</svg>
