<svg width="20" height="20" viewBox="0 0 20 20" fill="none" xmlns="http://www.w3.org/2000/svg">
<path fill-rule="evenodd" clip-rule="evenodd" d="M12.365 2.64453H7.71436V3.7952C7.71436 4.64253 7.02746 5.32943 6.18013 5.32943C5.33281 5.32943 4.64591 4.64253 4.64591 3.7952V2.64453H3.35141C1.55084 2.64453 0.0911865 4.10419 0.0911865 5.90477V7.19927H19.9881V5.90477C19.9881 4.10419 18.5285 2.64453 16.7279 2.64453H15.4334V3.60342C15.4334 4.45076 14.7465 5.13765 13.8992 5.13765C13.0519 5.13765 12.365 4.45076 12.365 3.60342V2.64453ZM0.0911865 7.96639H19.9881V16.2608C19.9881 18.0614 18.5285 19.521 16.7279 19.521H3.35141C1.55084 19.521 0.0911865 18.0614 0.0911865 16.2608V7.96639ZM10.4571 11.0139C10.371 10.7488 9.99602 10.7488 9.90991 11.0139L9.40309 12.5737C9.36458 12.6922 9.25413 12.7725 9.12951 12.7725H7.48941C7.21074 12.7725 7.09488 13.1291 7.32032 13.2929L8.64719 14.2569C8.74801 14.3301 8.7902 14.46 8.75169 14.5785L8.24487 16.1383C8.15876 16.4034 8.4621 16.6238 8.68755 16.46L10.0144 15.4959C10.1152 15.4227 10.2518 15.4227 10.3526 15.4959L11.6794 16.46C11.9049 16.6238 12.2082 16.4034 12.1221 16.1383L11.6153 14.5785C11.5768 14.46 11.619 14.3301 11.7198 14.2569L13.0467 13.2929C13.2721 13.1291 13.1563 12.7725 12.8776 12.7725H11.2375C11.1129 12.7725 11.0024 12.6922 10.9639 12.5737L10.4571 11.0139Z" fill="white"/>
<path d="M5.22107 1.78165C5.22107 1.25206 5.65038 0.822754 6.17996 0.822754C6.70954 0.822754 7.13885 1.25206 7.13885 1.78165V3.79532C7.13885 4.3249 6.70954 4.75422 6.17996 4.75422C5.65038 4.75422 5.22107 4.3249 5.22107 3.79532V1.78165Z" fill="white"/>
<path d="M12.9403 1.58975C12.9403 1.06017 13.3696 0.630859 13.8992 0.630859C14.4288 0.630859 14.8581 1.06017 14.8581 1.58975V3.60343C14.8581 4.13301 14.4288 4.56232 13.8992 4.56232C13.3696 4.56232 12.9403 4.13301 12.9403 3.60343V1.58975Z" fill="white"/>
</svg>
