<svg width="20" height="20" viewBox="0 0 20 20" fill="none" xmlns="http://www.w3.org/2000/svg">
<path d="M13.5525 8.93403C13.927 8.93505 14.2979 8.86178 14.6439 8.71845C14.9899 8.57512 15.304 8.36459 15.568 8.09903L18.311 5.35785C18.5279 5.14091 18.5479 4.78789 18.3413 4.56026C18.2894 4.50307 18.2264 4.45701 18.1562 4.42489C18.086 4.39276 18.01 4.37523 17.9328 4.37337C17.8557 4.3715 17.7789 4.38534 17.7072 4.41403C17.6356 4.44273 17.5705 4.48569 17.5159 4.54031L15.0711 6.98332C14.989 7.06531 14.8777 7.11136 14.7617 7.11136C14.6457 7.11136 14.5344 7.06531 14.4523 6.98332C14.2817 6.81304 14.2909 6.52521 14.4612 6.35493L16.8953 3.92083C16.9499 3.86626 16.9928 3.80119 17.0215 3.72954C17.0501 3.6579 17.064 3.58118 17.0621 3.50404C17.0602 3.4269 17.0427 3.35094 17.0106 3.28077C16.9785 3.2106 16.9325 3.14767 16.8754 3.0958C16.7722 3.00225 16.6378 2.95077 16.4985 2.95153C16.3407 2.95164 16.1893 3.01443 16.0778 3.12608L13.6458 5.5577C13.5637 5.63968 13.4525 5.68574 13.3364 5.68574C13.2204 5.68574 13.1091 5.63968 13.0271 5.5577C12.8568 5.38742 12.8657 5.09959 13.036 4.92931L15.4701 2.49592C15.5246 2.44135 15.5675 2.37627 15.5962 2.30463C15.6249 2.23299 15.6387 2.15627 15.6368 2.07913C15.635 2.00199 15.6174 1.92603 15.5854 1.85586C15.5533 1.78568 15.5072 1.72276 15.4501 1.67089C15.347 1.57733 15.2125 1.52585 15.0732 1.52662C14.9154 1.52681 14.7641 1.58958 14.6525 1.70117L11.9113 4.44235C11.6458 4.70644 11.4352 5.0206 11.2919 5.36664C11.1485 5.71267 11.0753 6.0837 11.0763 6.45824V6.75142C11.0764 6.82637 11.0617 6.9006 11.033 6.96986C11.0043 7.03912 10.9623 7.10204 10.9093 7.15502L9.64075 8.42391C9.62752 8.43716 9.6118 8.44767 9.5945 8.45484C9.5772 8.46201 9.55866 8.4657 9.53994 8.4657C9.52121 8.4657 9.50267 8.46201 9.48537 8.45484C9.46807 8.44767 9.45236 8.43716 9.43912 8.42391L3.2664 2.25083C3.15987 2.14417 3.01542 2.08407 2.86466 2.08367C2.71391 2.08327 2.56914 2.1426 2.46204 2.24869C1.92236 2.78339 1.63417 3.53824 1.63417 4.4313C1.63061 5.90609 2.40576 7.60173 3.65719 8.85138L6.70116 11.8953C7.13379 12.3271 7.72003 12.5696 8.33125 12.5697C8.52611 12.5698 8.72018 12.5449 8.9087 12.4956C8.95604 12.4832 9.00475 12.4768 9.05369 12.4767C9.19677 12.4767 9.33457 12.5308 9.43948 12.6281L9.84522 13.0029C9.94987 13.1098 10.0087 13.2533 10.0091 13.4029V13.6003C10.008 14.0489 10.1844 14.4798 10.4996 14.799L13.7074 18.0609L13.7107 18.0645C14.0667 18.4205 14.5496 18.6205 15.053 18.6204C15.5565 18.6204 16.0394 18.4204 16.3954 18.0643C16.7514 17.7083 16.9513 17.2254 16.9513 16.7219C16.9513 16.2185 16.7512 15.7356 16.3952 15.3796L11.5868 10.5712C11.5736 10.558 11.5631 10.5423 11.5559 10.525C11.5487 10.5077 11.545 10.4892 11.545 10.4704C11.545 10.4517 11.5487 10.4332 11.5559 10.4159C11.5631 10.3986 11.5736 10.3829 11.5868 10.3696L12.8554 9.1011C12.9083 9.04812 12.9712 9.0061 13.0403 8.97743C13.1095 8.94876 13.1837 8.93401 13.2586 8.93403H13.5525Z" fill="white"/>
<path d="M8.33116 13.7095C7.41863 13.7076 6.54363 13.346 5.89599 12.7032L5.40225 12.2094C5.34883 12.1562 5.27645 12.1262 5.20098 12.1262C5.12552 12.1262 5.05314 12.1562 4.99972 12.2094L1.97178 15.2217C1.43209 15.7614 1.23937 16.5558 1.50654 17.3338C1.5215 17.3776 1.53922 17.4205 1.55962 17.462C1.91906 18.198 2.61655 18.6255 3.37959 18.6255C3.642 18.6261 3.90193 18.5747 4.14432 18.4742C4.38671 18.3736 4.60675 18.226 4.79168 18.0398L8.82988 13.9824C8.84688 13.965 8.85989 13.9442 8.86801 13.9213C8.87613 13.8984 8.87917 13.8741 8.8769 13.8499V13.8406C8.87532 13.8184 8.86925 13.7967 8.85907 13.7769C8.84889 13.7571 8.8348 13.7396 8.81766 13.7254C8.80052 13.7112 8.78067 13.7006 8.75932 13.6942C8.73798 13.6879 8.71557 13.6859 8.69344 13.6885C8.57313 13.7018 8.45221 13.7089 8.33116 13.7095Z" fill="white"/>
</svg>
